<svg width="16" height="16" viewBox="0 0 16 16" fill="none" xmlns="http://www.w3.org/2000/svg">
<path d="M12.1954 0.763672H2.98471C1.40979 0.763672 0.125977 2.04749 0.125977 3.62242V12.8331C0.125977 14.408 1.40979 15.6918 2.98471 15.6918H12.1954C13.5539 15.6918 14.6884 14.7364 14.9795 13.4675C15.0243 13.3854 15.0541 13.2959 15.0541 13.1988V3.62242C15.0541 2.04749 13.7703 0.763672 12.1954 0.763672ZM12.7552 8.99655C12.7552 9.30258 12.5014 9.55636 12.1954 9.55636C11.8819 9.55636 11.6356 9.30258 11.6356 8.99655V7.45895C11.6356 7.15293 11.8819 6.89915 12.1954 6.89915C12.5014 6.89915 12.7552 7.15293 12.7552 7.45895V8.99655ZM2.4249 8.99655V7.45895C2.4249 7.15293 2.67868 6.89915 2.98471 6.89915C3.2982 6.89915 3.54452 7.15293 3.54452 7.45895V8.99655C3.54452 9.30258 3.2982 9.55636 2.98471 9.55636C2.67868 9.55636 2.4249 9.30258 2.4249 8.99655ZM10.4488 5.92882V10.5267C10.4488 10.8402 10.2025 11.0865 9.88899 11.0865C9.58296 11.0865 9.32918 10.8402 9.32918 10.5267V5.92882C9.32918 5.61532 9.58296 5.36901 9.88899 5.36901C10.2025 5.36901 10.4488 5.61532 10.4488 5.92882ZM8.14986 4.39122V12.0643C8.14986 12.3703 7.89609 12.6241 7.59006 12.6241C7.28403 12.6241 7.03025 12.3703 7.03025 12.0643V4.39122C7.03025 4.08519 7.28403 3.83141 7.59006 3.83141C7.89609 3.83141 8.14986 4.08519 8.14986 4.39122ZM5.85094 5.92882V10.5267C5.85094 10.8402 5.59716 11.0865 5.29113 11.0865C4.97764 11.0865 4.73133 10.8402 4.73133 10.5267V5.92882C4.73133 5.61532 4.97764 5.36901 5.29113 5.36901C5.59716 5.36901 5.85094 5.61532 5.85094 5.92882Z" fill="black"/>
</svg>
