<svg width="13" height="16" viewBox="0 0 13 16" fill="none" xmlns="http://www.w3.org/2000/svg">
<path d="M10.1732 0.733398H2.50009C1.35062 0.733398 0.410156 1.6664 0.410156 2.82333V13.5641C0.410156 14.7211 1.35062 15.6616 2.50009 15.6616H10.1732C11.3301 15.6616 12.2631 14.7211 12.2631 13.5641V2.82333C12.2631 1.6664 11.3301 0.733398 10.1732 0.733398ZM3.26891 11.5041H9.40436C9.71786 11.5041 9.96417 11.7579 9.96417 12.0639C9.96417 12.3699 9.71786 12.6237 9.40436 12.6237H3.26891C2.96288 12.6237 2.70911 12.3699 2.70911 12.0639C2.70911 11.7579 2.96288 11.5041 3.26891 11.5041ZM2.70911 8.22733C2.70911 7.9213 2.96288 7.66753 3.26891 7.66753H9.40436C9.71786 7.66753 9.96417 7.9213 9.96417 8.22733C9.96417 8.54082 9.71786 8.78714 9.40436 8.78714H3.26891C2.96288 8.78714 2.70911 8.54082 2.70911 8.22733ZM9.40436 4.9506H3.26891C2.96288 4.9506 2.70911 4.70429 2.70911 4.39079C2.70911 4.08477 2.96288 3.83099 3.26891 3.83099H9.40436C9.71786 3.83099 9.96417 4.08477 9.96417 4.39079C9.96417 4.70429 9.71786 4.9506 9.40436 4.9506Z" fill="black"/>
</svg>
