<svg width="15" height="16" viewBox="0 0 15 16" fill="none" xmlns="http://www.w3.org/2000/svg">
<path d="M12.6585 2.90851C11.2851 1.53512 9.45642 0.78125 7.51576 0.78125C5.5751 0.78125 3.7464 1.53512 2.37301 2.90851C0.992154 4.2819 0.238281 6.1106 0.238281 8.05873C0.238281 9.01413 0.424885 9.95461 0.790625 10.8428C1.15636 11.7311 1.69378 12.5223 2.37301 13.2015C3.04478 13.8807 3.84343 14.4107 4.73166 14.7764C5.61988 15.1496 6.55289 15.3362 7.51576 15.3362C8.47863 15.3362 9.41164 15.1496 10.2999 14.7764C11.1881 14.4107 11.9867 13.8807 12.6585 13.2015C13.3377 12.5223 13.8752 11.7311 14.2409 10.8428C14.6066 9.95461 14.7932 9.01413 14.7932 8.05873C14.7932 6.1106 14.0394 4.2819 12.6585 2.90851ZM8.07557 11.2608V11.4176C8.07557 11.7236 7.82179 11.9774 7.51576 11.9774C7.20973 11.9774 6.95595 11.7236 6.95595 11.4176V11.2534C6.29912 11.1489 5.71692 10.8652 5.34371 10.4398C5.1795 10.2457 5.16457 9.96207 5.31386 9.75307C5.46314 9.53662 5.73185 9.46198 5.9707 9.55155L6.95595 9.92475V8.56629C5.79156 8.38715 4.94065 7.63327 4.94065 6.71519C4.94065 5.78965 5.79156 5.04324 6.95595 4.85664V4.69989C6.95595 4.3864 7.20973 4.14009 7.51576 4.14009C7.82179 4.14009 8.07557 4.3864 8.07557 4.69989V4.85664C8.73241 4.9686 9.3146 5.25224 9.68781 5.67023C9.85202 5.86429 9.86695 6.14793 9.71767 6.36439C9.61317 6.51367 9.44149 6.60324 9.26236 6.60324C9.19518 6.60324 9.128 6.58831 9.06083 6.56591L8.07557 6.18524V7.54371C9.23996 7.72284 10.0909 8.47672 10.0909 9.40227C10.0909 10.3278 9.23996 11.0742 8.07557 11.2608Z" fill="black"/>
</svg>
