<svg width="14" height="13" viewBox="0 0 14 13" fill="none" xmlns="http://www.w3.org/2000/svg">
<path d="M6.06627 1.26951C6.32349 0.477872 7.44344 0.477872 7.70066 1.26951L8.61969 4.09798C8.73472 4.45201 9.06463 4.69171 9.43688 4.69171H12.4109C13.2433 4.69171 13.5894 5.75685 12.916 6.24611L10.5099 7.9942C10.2088 8.213 10.0828 8.60084 10.1978 8.95487L11.1168 11.7833C11.374 12.575 10.468 13.2333 9.79456 12.744L7.38852 10.9959C7.08736 10.7771 6.67957 10.7771 6.37841 10.9959L3.97237 12.744C3.29896 13.2333 2.3929 12.575 2.65012 11.7833L3.56914 8.95487C3.68418 8.60084 3.55816 8.213 3.257 7.9942L0.85096 6.24611C0.177554 5.75685 0.523639 4.69171 1.35601 4.69171H4.33005C4.7023 4.69171 5.03221 4.45201 5.14724 4.09798L6.06627 1.26951Z" fill="#F59E0B"/>
</svg>
