<svg width="22" height="19" viewBox="0 0 22 19" fill="none" xmlns="http://www.w3.org/2000/svg">
<path fill-rule="evenodd" clip-rule="evenodd" d="M19.3129 9.45733C19.3129 10.265 20.0063 10.9222 20.8585 10.9222C21.2882 10.9222 21.637 11.2528 21.637 11.6601V14.3173C21.637 16.5643 19.7084 18.3922 17.3376 18.3922H5.17739C2.8066 18.3922 0.876953 16.5643 0.876953 14.3173V11.6601C0.876953 11.2528 1.22572 10.9222 1.65545 10.9222C2.50869 10.9222 3.20208 10.265 3.20208 9.45733C3.20208 8.67029 2.53672 8.07805 1.65545 8.07805C1.44889 8.07805 1.25167 8.00033 1.10531 7.86161C0.958955 7.7229 0.876953 7.53499 0.876953 7.3402L0.879029 4.59638C0.879029 2.34939 2.80764 0.520508 5.17843 0.520508H17.3355C19.7063 0.520508 21.636 2.34939 21.636 4.59638L21.637 7.25461C21.637 7.4494 21.555 7.63829 21.4097 7.77602C21.2633 7.91474 21.0661 7.99246 20.8585 7.99246C20.0063 7.99246 19.3129 8.64963 19.3129 9.45733ZM13.5942 10.0994L14.818 8.97003C15.0308 8.77524 15.1045 8.48797 15.0122 8.22235C14.9208 7.95672 14.6821 7.76783 14.3935 7.72946L12.7026 7.49532L11.9459 6.04323C11.8161 5.79335 11.5525 5.63791 11.2587 5.63692H11.2567C10.9639 5.63692 10.7003 5.79236 10.5685 6.04225L9.81177 7.49532L8.12397 7.72848C7.8323 7.76783 7.59356 7.95672 7.50117 8.22235C7.40983 8.48797 7.48353 8.77524 7.69528 8.97003L8.91908 10.0994L8.63052 11.6961C8.5807 11.9716 8.69799 12.2451 8.93673 12.4094C9.07167 12.5009 9.22841 12.5481 9.38722 12.5481C9.50867 12.5481 9.63115 12.5196 9.74326 12.4635L11.2567 11.7099L12.767 12.4615C13.0285 12.5943 13.3389 12.5737 13.5766 12.4084C13.8164 12.2451 13.9337 11.9716 13.8838 11.6961L13.5942 10.0994Z" fill="#130F26"/>
</svg>
